<svg xmlns:dc="http://purl.org/dc/elements/1.1/" xmlns:cc="http://creativecommons.org/ns#" xmlns:rdf="http://www.w3.org/1999/02/22-rdf-syntax-ns#" xmlns:svg="http://www.w3.org/2000/svg" xmlns="http://www.w3.org/2000/svg" xmlns:sodipodi="http://sodipodi.sourceforge.net/DTD/sodipodi-0.dtd" xmlns:inkscape="http://www.inkscape.org/namespaces/inkscape" version="1.1" x="0px" y="0px" viewBox="0 0 100 125"><g transform="translate(0,-952.36218)"><path style="text-indent:0;text-transform:none;direction:ltr;block-progression:tb;baseline-shift:baseline;color:#000000;enable-background:accumulate;" d="M 26,5 C 14.437555,5 5,14.43755 5,26 5,37.56244 14.437555,47 26,47 37.562445,47 47,37.56244 47,26 47,14.43755 37.562445,5 26,5 z M 74,5 C 62.437555,5 53,14.43755 53,26 53,37.56244 62.437555,47 74,47 85.562445,47 95,37.56244 95,26 95,14.43755 85.562445,5 74,5 z m -48,6 c 8.319805,0 15,6.68019 15,15 0,8.3198 -6.680195,15 -15,15 -8.319805,0 -15,-6.6802 -15,-15 0,-8.31981 6.680195,-15 15,-15 z m 48,0 c 8.319805,0 15,6.68019 15,15 0,8.3198 -6.680195,15 -15,15 C 65.680195,41 59,34.3198 59,26 59,17.68019 65.680195,11 74,11 z M 25.96875,15.9375 C 24.387393,15.953788 22.967131,17.418901 23,19 l 0,4 c -1.421538,-1.38e-4 -2.916784,0 -4.3125,0 -1.570984,0.08155 -2.926091,1.585307 -2.84427,3.156277 C 15.925051,27.727247 17.429044,29.082094 19,29 l 4,0 0,4 c -0.02241,1.584938 1.414904,3.042726 3,3.042726 1.585096,0 3.022415,-1.457788 3,-3.042726 l 0,-4 4,0 c 1.584938,0.02241 3.042726,-1.414904 3.042726,-3 0,-1.585096 -1.457788,-3.022415 -3.042726,-3 l -4,0 0,-4 c 0.03331,-1.60193 -1.429062,-3.079375 -3.03125,-3.0625 z m 42.6875,2.03125 c -1.123172,0.120413 -2.143335,0.931216 -2.514182,1.998215 -0.370848,1.066999 -0.07345,2.335734 0.732932,3.126785 L 69.75,26 66.875,28.875 c -1.223497,1.084361 -1.283954,3.222953 -0.123672,4.374704 1.160282,1.15175 3.29837,1.075512 4.373672,-0.155954 l 2.875,-2.875 2.875,2.875 c 1.075302,1.231466 3.21339,1.307704 4.373672,0.155954 C 82.408954,32.097953 82.348497,29.959361 81.125,28.875 L 78.25,26 81.125,23.09375 c 0.892842,-0.870601 1.14962,-2.326705 0.608429,-3.450192 C 81.192237,18.520071 79.893557,17.813242 78.65625,17.96875 77.982925,18.057531 77.343185,18.383012 76.875,18.875 L 74,21.75 71.125,18.875 c -0.628627,-0.654397 -1.566034,-0.998508 -2.46875,-0.90625 z m -40.9375,35 c -1.51022,0.07728 -2.836321,1.458502 -2.852072,2.970616 -0.01575,1.512115 1.281289,2.920659 2.789572,3.029384 C 35.122099,59.80825 41,66.263 41,74 41,82.3198 34.319799,89 26,89 17.680202,89 11,82.3198 11,74 11,68.1317 14.405521,63.14285 19.34375,60.65625 20.872957,60.034495 21.635804,58.003627 20.894108,56.528859 20.152412,55.054091 18.06719,54.455585 16.65625,55.3125 9.8170473,58.7563 5,65.7947 5,74 5,85.5624 14.43755,95 26,95 37.562451,95 47,85.5624 47,74 47,63.23 38.845163,54.1809 28.34375,53 c -0.103526,-0.01586 -0.207883,-0.0263 -0.3125,-0.03125 -0.104073,-0.0054 -0.208427,-0.0054 -0.3125,0 z M 74,53 C 62.437555,53 53,62.4376 53,74 53,85.5624 62.437555,95 74,95 85.562445,95 95,85.5624 95,74 95,62.4376 85.562445,53 74,53 z m 0,6 c 8.319805,0 15,6.6802 15,15 0,8.3198 -6.680195,15 -15,15 -8.319805,0 -15,-6.6802 -15,-15 0,-8.3198 6.680195,-15 15,-15 z m -7.3125,8 c -1.570984,0.08155 -2.926091,1.585307 -2.84427,3.156277 C 63.925051,71.727247 65.429044,73.082094 67,73 l 14,0 c 1.584938,0.02241 3.042726,-1.414904 3.042726,-3 0,-1.585096 -1.457788,-3.022415 -3.042726,-3 -4.757785,-1.4e-5 -9.579385,0 -14.3125,0 z m -48,4 c -1.570984,0.08155 -2.926091,1.585307 -2.84427,3.156277 C 15.925051,75.727247 17.429044,77.082094 19,77 l 14,0 c 1.584938,0.02241 3.042726,-1.414904 3.042726,-3 0,-1.585096 -1.457788,-3.022415 -3.042726,-3 -4.757785,-1.4e-5 -9.579385,0 -14.3125,0 z m 48,4 c -1.570984,0.08155 -2.926091,1.585307 -2.84427,3.156277 C 63.925051,79.727247 65.429044,81.082094 67,81 l 14,0 c 1.584938,0.02241 3.042726,-1.414904 3.042726,-3 0,-1.585096 -1.457788,-3.022415 -3.042726,-3 -4.757785,-1.4e-5 -9.579385,0 -14.3125,0 z" transform="translate(0,952.36218)" fill="#000000" fill-opacity="1" stroke="none" marker="none" visibility="visible" display="inline" overflow="visible"/></g><text x="0" y="115" fill="#000000" font-size="5px" font-weight="bold" font-family="'Helvetica Neue', Helvetica, Arial-Unicode, Arial, Sans-serif">Created by vigorn</text><text x="0" y="120" fill="#000000" font-size="5px" font-weight="bold" font-family="'Helvetica Neue', Helvetica, Arial-Unicode, Arial, Sans-serif">from the Noun Project</text></svg>